<?xml version="1.0" encoding="utf-8"?>
<!-- Generator: Adobe Illustrator 16.0.3, SVG Export Plug-In . SVG Version: 6.00 Build 0)  -->
<!DOCTYPE svg PUBLIC "-//W3C//DTD SVG 1.1//EN" "http://www.w3.org/Graphics/SVG/1.1/DTD/svg11.dtd">
<svg version="1.1" id="Layer_1" xmlns="http://www.w3.org/2000/svg" xmlns:xlink="http://www.w3.org/1999/xlink" x="0px" y="0px"
	 width="149.696px" height="62.483px" viewBox="0 0 149.696 62.483" enable-background="new 0 0 149.696 62.483"
	 xml:space="preserve">
<g>
	<defs>
		<rect id="SVGID_1_" y="0" width="149.696" height="62.483"/>
	</defs>
	<clipPath id="SVGID_2_">
		<use xlink:href="#SVGID_1_"  overflow="visible"/>
	</clipPath>
	<path clip-path="url(#SVGID_2_)" fill="#d2d2d2" d="M15.436,24.667c-1.156,0.487-2.324,0.73-3.502,0.73
		c-1.859,0-3.531-0.322-5.015-0.968c-1.485-0.646-2.737-1.535-3.757-2.668c-1.02-1.134-1.802-2.466-2.346-3.996
		C0.272,16.235,0,14.586,0,12.818c0-1.813,0.272-3.496,0.816-5.049C1.36,6.218,2.142,4.862,3.162,3.706
		c1.02-1.156,2.272-2.062,3.757-2.72C8.403,0.329,10.075,0,11.934,0c1.246,0,2.453,0.187,3.621,0.562
		c1.167,0.373,2.221,0.923,3.162,1.648c0.94,0.727,1.717,1.621,2.329,2.686c0.612,1.066,0.986,2.291,1.122,3.672h-5.1
		c-0.317-1.36-0.93-2.38-1.836-3.06c-0.907-0.68-2.006-1.02-3.298-1.02c-1.202,0-2.222,0.234-3.06,0.697
		c-0.839,0.464-1.519,1.087-2.04,1.871C6.313,7.837,5.933,8.728,5.695,9.724c-0.238,0.998-0.357,2.029-0.357,3.094
		c0,1.02,0.119,2.012,0.357,2.975c0.238,0.964,0.618,1.831,1.139,2.601c0.521,0.771,1.201,1.389,2.04,1.853
		c0.838,0.465,1.858,0.697,3.06,0.697c1.768,0,3.133-0.447,4.097-1.343c0.963-0.895,1.524-2.193,1.683-3.893h-5.372v-3.979h10.2
		v13.125h-3.4l-0.544-2.753C17.645,23.325,16.591,24.181,15.436,24.667"/>
	<path clip-path="url(#SVGID_2_)" fill="#d2d2d2" d="M31.177,20.64c0.725,0.703,1.768,1.054,3.128,1.054
		c0.975,0,1.813-0.243,2.516-0.732c0.702-0.486,1.133-1.003,1.292-1.547h4.25c-0.68,2.108-1.723,3.617-3.128,4.522
		c-1.406,0.908-3.105,1.36-5.1,1.36c-1.383,0-2.629-0.221-3.74-0.663c-1.111-0.441-2.052-1.07-2.822-1.887
		c-0.77-0.816-1.366-1.791-1.785-2.923c-0.42-1.133-0.629-2.38-0.629-3.741c0-1.314,0.215-2.539,0.646-3.671
		c0.431-1.133,1.042-2.114,1.836-2.942c0.793-0.826,1.74-1.478,2.839-1.955c1.099-0.476,2.317-0.713,3.655-0.713
		c1.496,0,2.799,0.288,3.91,0.866c1.11,0.578,2.023,1.355,2.737,2.329c0.714,0.975,1.229,2.085,1.547,3.332
		c0.318,1.247,0.431,2.55,0.34,3.911H29.987C30.055,18.804,30.452,19.937,31.177,20.64 M36.634,11.392
		c-0.578-0.635-1.457-0.953-2.635-0.953c-0.771,0-1.411,0.132-1.921,0.391c-0.51,0.261-0.918,0.584-1.224,0.969
		c-0.306,0.386-0.522,0.794-0.646,1.224c-0.125,0.432-0.199,0.816-0.221,1.156h7.854C37.614,12.955,37.212,12.024,36.634,11.392"/>
	<path clip-path="url(#SVGID_2_)" fill="#d2d2d2" d="M55.181,7.276v3.23h-3.536v8.704c0,0.816,0.136,1.36,0.408,1.632
		s0.816,0.408,1.632,0.408c0.272,0,0.532-0.011,0.782-0.034c0.25-0.022,0.487-0.056,0.714-0.102v3.74
		c-0.408,0.068-0.862,0.113-1.36,0.136c-0.499,0.022-0.986,0.034-1.462,0.034c-0.748,0-1.457-0.051-2.125-0.153
		c-0.669-0.103-1.258-0.3-1.768-0.595c-0.51-0.295-0.913-0.715-1.207-1.258c-0.294-0.545-0.442-1.258-0.442-2.142v-10.37h-2.924
		v-3.23h2.924v-5.27h4.828v5.27H55.181z"/>
	<path clip-path="url(#SVGID_2_)" fill="#d2d2d2" d="M62.405,20.485c0.215,0.373,0.493,0.68,0.833,0.918s0.731,0.414,1.174,0.527
		c0.441,0.113,0.9,0.17,1.377,0.17c0.34,0,0.696-0.041,1.07-0.119c0.374-0.079,0.715-0.204,1.02-0.375
		c0.306-0.17,0.561-0.395,0.765-0.68c0.204-0.283,0.307-0.64,0.307-1.07c0-0.725-0.483-1.269-1.445-1.633
		c-0.965-0.361-2.307-0.724-4.03-1.088c-0.703-0.158-1.389-0.345-2.057-0.56c-0.669-0.215-1.264-0.499-1.785-0.85
		c-0.521-0.351-0.941-0.793-1.258-1.326c-0.318-0.532-0.476-1.184-0.476-1.955c0-1.133,0.221-2.062,0.663-2.788
		c0.442-0.726,1.025-1.298,1.751-1.718c0.725-0.418,1.541-0.713,2.448-0.883C63.668,6.885,64.598,6.8,65.55,6.8
		s1.875,0.091,2.771,0.272c0.895,0.182,1.694,0.487,2.397,0.918c0.704,0.43,1.286,1.003,1.751,1.717
		c0.464,0.714,0.742,1.615,0.833,2.703h-4.589c-0.069-0.929-0.42-1.558-1.055-1.888c-0.635-0.327-1.383-0.492-2.244-0.492
		c-0.272,0-0.567,0.017-0.884,0.051c-0.317,0.034-0.606,0.107-0.867,0.22c-0.261,0.114-0.482,0.279-0.663,0.494
		c-0.182,0.215-0.272,0.505-0.272,0.867c0,0.43,0.158,0.782,0.476,1.054c0.317,0.272,0.731,0.493,1.241,0.663
		c0.51,0.17,1.094,0.323,1.751,0.459c0.657,0.135,1.326,0.284,2.007,0.442c0.702,0.158,1.387,0.351,2.056,0.578
		c0.668,0.227,1.263,0.527,1.786,0.9c0.52,0.375,0.939,0.84,1.257,1.395c0.317,0.556,0.476,1.24,0.476,2.057
		c0,1.156-0.231,2.125-0.696,2.907c-0.465,0.782-1.073,1.411-1.82,1.887c-0.748,0.475-1.604,0.811-2.567,1.002
		c-0.964,0.193-1.943,0.29-2.941,0.29c-1.02,0-2.018-0.102-2.992-0.306c-0.975-0.204-1.842-0.544-2.601-1.021
		c-0.759-0.475-1.383-1.104-1.87-1.886c-0.488-0.782-0.754-1.762-0.799-2.942h4.59C62.082,19.664,62.189,20.111,62.405,20.485"/>
	<path clip-path="url(#SVGID_2_)" fill="#d2d2d2" d="M76.906,9.861c0.5-0.748,1.133-1.348,1.905-1.803
		c0.771-0.453,1.638-0.775,2.601-0.969C82.375,6.897,83.345,6.8,84.318,6.8c0.885,0,1.778,0.064,2.687,0.188
		c0.907,0.125,1.735,0.369,2.481,0.73c0.748,0.363,1.36,0.867,1.838,1.514c0.474,0.645,0.713,1.502,0.713,2.566v9.147
		c0,0.794,0.045,1.552,0.136,2.277c0.09,0.727,0.249,1.27,0.477,1.633h-4.896c-0.092-0.273-0.166-0.549-0.221-0.834
		c-0.06-0.282-0.099-0.571-0.119-0.866c-0.772,0.794-1.678,1.348-2.721,1.666c-1.044,0.317-2.107,0.475-3.195,0.475
		c-0.84,0-1.621-0.101-2.346-0.305c-0.728-0.205-1.361-0.521-1.906-0.953c-0.543-0.429-0.969-0.974-1.274-1.631
		c-0.306-0.658-0.46-1.439-0.46-2.347c0-0.996,0.175-1.819,0.527-2.465c0.351-0.645,0.804-1.162,1.36-1.547
		c0.556-0.385,1.189-0.674,1.904-0.867c0.713-0.191,1.435-0.346,2.159-0.459c0.724-0.113,1.439-0.203,2.142-0.272
		c0.701-0.068,1.326-0.169,1.869-0.306c0.545-0.136,0.976-0.334,1.293-0.595c0.317-0.26,0.465-0.64,0.442-1.139
		c0-0.52-0.086-0.934-0.256-1.241c-0.17-0.305-0.397-0.544-0.681-0.714c-0.284-0.17-0.61-0.283-0.985-0.339
		c-0.373-0.058-0.778-0.085-1.207-0.085c-0.951,0-1.699,0.203-2.244,0.611c-0.543,0.408-0.86,1.088-0.952,2.041h-4.828
		C76.125,11.549,76.408,10.609,76.906,9.861 M86.443,16.679c-0.308,0.102-0.636,0.187-0.986,0.254
		c-0.353,0.068-0.719,0.125-1.104,0.17c-0.387,0.045-0.771,0.102-1.155,0.17c-0.363,0.068-0.722,0.16-1.07,0.272
		c-0.353,0.114-0.659,0.267-0.918,0.459c-0.262,0.194-0.471,0.437-0.629,0.732c-0.16,0.295-0.239,0.669-0.239,1.121
		c0,0.431,0.079,0.795,0.239,1.089c0.158,0.295,0.373,0.526,0.646,0.696s0.588,0.289,0.951,0.357
		c0.362,0.069,0.737,0.102,1.121,0.102c0.954,0,1.69-0.158,2.211-0.476c0.522-0.317,0.907-0.696,1.157-1.138
		c0.248-0.443,0.402-0.89,0.459-1.343c0.056-0.453,0.084-0.817,0.084-1.088v-1.803C87.004,16.435,86.75,16.576,86.443,16.679"/>
	<path clip-path="url(#SVGID_2_)" fill="#d2d2d2" d="M107.913,22.611c-0.565,0.951-1.308,1.637-2.226,2.056
		c-0.918,0.419-1.956,0.629-3.112,0.629c-1.313,0-2.47-0.255-3.469-0.765c-0.996-0.51-1.818-1.201-2.464-2.074
		c-0.647-0.873-1.135-1.875-1.461-3.009c-0.33-1.132-0.494-2.312-0.494-3.536c0-1.178,0.164-2.317,0.494-3.417
		c0.326-1.099,0.813-2.068,1.461-2.907c0.646-0.838,1.457-1.513,2.431-2.022c0.976-0.51,2.108-0.766,3.401-0.766
		c1.041,0,2.033,0.221,2.974,0.663c0.942,0.442,1.685,1.095,2.228,1.955h0.067v-8.84h4.828v24.277h-4.59v-2.244H107.913z
		 M107.711,13.923c-0.138-0.668-0.369-1.258-0.697-1.768c-0.328-0.509-0.754-0.923-1.276-1.241c-0.521-0.317-1.177-0.475-1.97-0.475
		c-0.795,0-1.463,0.158-2.006,0.475c-0.545,0.318-0.981,0.738-1.312,1.258c-0.328,0.522-0.565,1.117-0.715,1.785
		c-0.146,0.669-0.22,1.366-0.22,2.091c0,0.68,0.08,1.36,0.238,2.04c0.157,0.681,0.411,1.287,0.766,1.819
		c0.351,0.532,0.793,0.963,1.326,1.292c0.531,0.33,1.172,0.494,1.92,0.494c0.793,0,1.457-0.159,1.988-0.477
		c0.532-0.316,0.957-0.742,1.274-1.275c0.317-0.532,0.543-1.139,0.681-1.819c0.137-0.679,0.204-1.382,0.204-2.107
		C107.913,15.289,107.848,14.593,107.711,13.923"/>
	<polygon clip-path="url(#SVGID_2_)" fill="#d2d2d2" points="124.268,10.914 115.8,10.914 115.8,7.276 130.624,7.276 
		130.624,10.914 121.48,21.216 131.271,21.216 131.271,24.855 115.121,24.855 115.121,21.216 	"/>
	<path clip-path="url(#SVGID_2_)" fill="#d2d2d2" d="M138.174,20.64c0.727,0.703,1.769,1.054,3.127,1.054
		c0.976,0,1.813-0.243,2.517-0.732c0.704-0.486,1.133-1.003,1.293-1.547h4.25c-0.681,2.108-1.724,3.617-3.128,4.522
		c-1.407,0.908-3.106,1.36-5.102,1.36c-1.384,0-2.63-0.221-3.738-0.663c-1.112-0.441-2.053-1.07-2.823-1.887
		c-0.771-0.816-1.365-1.791-1.785-2.923c-0.42-1.133-0.629-2.38-0.629-3.741c0-1.314,0.215-2.539,0.647-3.671
		c0.432-1.133,1.043-2.114,1.836-2.942c0.793-0.826,1.737-1.478,2.84-1.955c1.099-0.476,2.315-0.713,3.654-0.713
		c1.495,0,2.799,0.288,3.909,0.866c1.109,0.578,2.022,1.355,2.736,2.329c0.715,0.975,1.229,2.085,1.547,3.332
		c0.319,1.247,0.431,2.55,0.34,3.911h-12.681C137.051,18.804,137.446,19.937,138.174,20.64 M143.631,11.392
		c-0.578-0.635-1.457-0.953-2.636-0.953c-0.771,0-1.412,0.132-1.922,0.391c-0.509,0.261-0.918,0.584-1.224,0.969
		c-0.308,0.386-0.522,0.794-0.647,1.224c-0.125,0.432-0.199,0.816-0.22,1.156h7.853C144.61,12.955,144.208,12.024,143.631,11.392"/>
	<path clip-path="url(#SVGID_2_)" fill="#d2d2d2" d="M52.525,31.579c1.564,0,3.021,0.249,4.369,0.748
		c1.348,0.498,2.516,1.246,3.502,2.243c0.986,0.998,1.756,2.243,2.312,3.739c0.555,1.496,0.833,3.254,0.833,5.271
		c0,1.768-0.227,3.398-0.68,4.896c-0.454,1.496-1.139,2.787-2.057,3.875s-2.063,1.943-3.434,2.566
		c-1.372,0.624-2.987,0.936-4.845,0.936H42.054V31.579H52.525z M52.151,51.366c0.771,0,1.519-0.124,2.244-0.373
		c0.725-0.25,1.371-0.664,1.938-1.242c0.566-0.578,1.02-1.33,1.36-2.26s0.51-2.063,0.51-3.4c0-1.225-0.119-2.329-0.357-3.314
		c-0.238-0.985-0.629-1.83-1.173-2.532c-0.544-0.703-1.264-1.242-2.159-1.615c-0.896-0.375-2.001-0.562-3.315-0.562h-3.807v15.3
		L52.151,51.366L52.151,51.366z"/>
	<path clip-path="url(#SVGID_2_)" fill="#d2d2d2" d="M71.735,51.64c0.726,0.701,1.769,1.054,3.128,1.054
		c0.975,0,1.812-0.243,2.516-0.73c0.703-0.487,1.133-1.004,1.293-1.547h4.25c-0.68,2.106-1.723,3.615-3.129,4.521
		c-1.406,0.906-3.105,1.359-5.1,1.359c-1.383,0-2.629-0.221-3.74-0.662c-1.112-0.441-2.052-1.07-2.822-1.887
		c-0.771-0.816-1.366-1.791-1.785-2.925c-0.421-1.134-0.63-2.38-0.63-3.739c0-1.314,0.216-2.539,0.647-3.672
		c0.432-1.134,1.042-2.113,1.836-2.941c0.793-0.826,1.74-1.479,2.84-1.955c1.098-0.477,2.316-0.715,3.654-0.715
		c1.495,0,2.799,0.289,3.909,0.867s2.024,1.355,2.737,2.33c0.714,0.975,1.229,2.085,1.547,3.331c0.318,1.247,0.432,2.55,0.34,3.91
		H70.545C70.613,49.804,71.01,50.937,71.735,51.64 M77.192,42.392c-0.577-0.635-1.457-0.953-2.636-0.953
		c-0.77,0-1.411,0.132-1.921,0.392c-0.509,0.263-0.918,0.584-1.224,0.969c-0.306,0.388-0.522,0.796-0.646,1.226
		c-0.125,0.431-0.199,0.815-0.221,1.156h7.854C78.172,43.953,77.77,43.024,77.192,42.392"/>
	<path clip-path="url(#SVGID_2_)" fill="#d2d2d2" d="M89.977,51.485c0.215,0.373,0.492,0.68,0.833,0.918
		c0.34,0.238,0.73,0.414,1.173,0.527c0.44,0.112,0.899,0.17,1.377,0.17c0.34,0,0.696-0.039,1.07-0.119
		c0.374-0.079,0.715-0.204,1.021-0.375c0.304-0.17,0.56-0.396,0.763-0.68c0.205-0.283,0.308-0.641,0.308-1.07
		c0-0.727-0.483-1.271-1.445-1.633c-0.964-0.361-2.307-0.726-4.03-1.088c-0.702-0.158-1.388-0.346-2.056-0.562
		c-0.669-0.216-1.264-0.498-1.785-0.851c-0.521-0.352-0.941-0.793-1.258-1.326c-0.319-0.531-0.477-1.185-0.477-1.955
		c0-1.133,0.222-2.063,0.663-2.787c0.442-0.727,1.026-1.297,1.751-1.717c0.726-0.42,1.54-0.715,2.448-0.885
		c0.907-0.171,1.836-0.257,2.788-0.257c0.953,0,1.875,0.093,2.771,0.273c0.895,0.183,1.692,0.487,2.396,0.919
		c0.703,0.43,1.287,1.002,1.751,1.717c0.463,0.713,0.743,1.614,0.832,2.703h-4.589c-0.069-0.93-0.42-1.559-1.054-1.889
		c-0.636-0.328-1.384-0.492-2.244-0.492c-0.273,0-0.568,0.018-0.884,0.051c-0.316,0.035-0.605,0.107-0.867,0.223
		c-0.262,0.112-0.483,0.277-0.663,0.492c-0.183,0.214-0.273,0.503-0.273,0.867c0,0.429,0.158,0.781,0.478,1.052
		c0.315,0.273,0.729,0.495,1.24,0.665c0.511,0.169,1.094,0.322,1.752,0.459c0.655,0.137,1.325,0.283,2.006,0.441
		c0.703,0.158,1.389,0.351,2.057,0.578c0.667,0.227,1.263,0.525,1.785,0.898c0.521,0.375,0.939,0.842,1.257,1.396
		c0.318,0.556,0.477,1.24,0.477,2.057c0,1.156-0.231,2.125-0.696,2.908c-0.465,0.781-1.071,1.41-1.819,1.887
		s-1.604,0.811-2.567,1.001c-0.964,0.194-1.943,0.29-2.939,0.29c-1.021,0-2.02-0.102-2.993-0.305
		c-0.975-0.205-1.841-0.545-2.601-1.021c-0.76-0.476-1.384-1.104-1.87-1.888c-0.488-0.782-0.754-1.762-0.799-2.94h4.59
		C89.653,50.664,89.76,51.111,89.977,51.485"/>
	<path clip-path="url(#SVGID_2_)" fill="#d2d2d2" d="M103.966,31.579h4.828v3.979h-4.828V31.579z M108.794,55.854h-4.828V38.276
		h4.828V55.854z"/>
	<path clip-path="url(#SVGID_2_)" fill="#d2d2d2" d="M128.362,57.146c-0.192,0.906-0.606,1.752-1.242,2.533
		c-0.635,0.782-1.553,1.444-2.754,1.989c-1.201,0.543-2.81,0.815-4.828,0.815c-0.86,0-1.739-0.108-2.635-0.323
		c-0.894-0.216-1.711-0.55-2.447-1.002c-0.736-0.455-1.35-1.037-1.836-1.752c-0.487-0.715-0.766-1.569-0.834-2.566h4.795
		c0.227,0.906,0.668,1.535,1.326,1.888c0.656,0.352,1.416,0.526,2.278,0.526c1.359,0,2.351-0.407,2.974-1.226
		c0.623-0.815,0.925-1.848,0.901-3.094v-2.312h-0.067c-0.521,0.931-1.264,1.615-2.228,2.058c-0.963,0.442-1.979,0.664-3.041,0.664
		c-1.317,0-2.45-0.233-3.401-0.697c-0.953-0.465-1.733-1.101-2.346-1.904c-0.613-0.805-1.06-1.744-1.343-2.822
		c-0.284-1.076-0.426-2.215-0.426-3.416c0-1.134,0.163-2.229,0.493-3.281c0.327-1.055,0.811-1.982,1.445-2.787
		c0.633-0.805,1.421-1.444,2.362-1.922c0.94-0.477,2.022-0.715,3.248-0.715c1.155,0,2.17,0.217,3.043,0.646
		c0.871,0.433,1.603,1.157,2.192,2.177h0.067v-2.347h4.591v16.456C128.651,55.435,128.557,56.239,128.362,57.146 M121.749,51.298
		c0.521-0.271,0.951-0.634,1.291-1.088c0.341-0.453,0.597-0.969,0.767-1.547s0.256-1.184,0.256-1.818
		c0-0.726-0.069-1.41-0.204-2.057c-0.136-0.646-0.363-1.22-0.681-1.719c-0.317-0.497-0.737-0.896-1.258-1.189
		c-0.522-0.294-1.181-0.441-1.974-0.441c-0.679,0-1.263,0.138-1.75,0.408c-0.487,0.271-0.896,0.642-1.224,1.105
		c-0.329,0.465-0.568,0.997-0.715,1.598c-0.147,0.601-0.222,1.229-0.222,1.887c0,0.636,0.063,1.265,0.188,1.888
		c0.124,0.624,0.339,1.187,0.646,1.684c0.306,0.498,0.707,0.906,1.207,1.224c0.498,0.317,1.121,0.477,1.869,0.477
		C120.627,51.706,121.229,51.569,121.749,51.298"/>
	<path clip-path="url(#SVGID_2_)" fill="#d2d2d2" d="M136.268,38.276v2.447h0.104c0.611-1.021,1.404-1.763,2.378-2.228
		c0.975-0.464,1.973-0.697,2.993-0.697c1.293,0,2.351,0.177,3.179,0.527c0.826,0.353,1.479,0.84,1.955,1.463
		c0.478,0.623,0.812,1.383,1.002,2.276c0.194,0.896,0.289,1.888,0.289,2.976v10.812h-4.828v-9.927c0-1.452-0.226-2.534-0.679-3.247
		c-0.453-0.715-1.258-1.072-2.414-1.072c-1.315,0-2.268,0.392-2.856,1.174c-0.59,0.781-0.885,2.068-0.885,3.859v9.213h-4.826V38.276
		H136.268z"/>
</g>
</svg>
