<?xml version="1.0" encoding="utf-8"?>
<!-- Generator: Adobe Illustrator 16.0.3, SVG Export Plug-In . SVG Version: 6.00 Build 0)  -->
<!DOCTYPE svg PUBLIC "-//W3C//DTD SVG 1.1//EN" "http://www.w3.org/Graphics/SVG/1.1/DTD/svg11.dtd">
<svg version="1.1" id="Layer_1" xmlns="http://www.w3.org/2000/svg" xmlns:xlink="http://www.w3.org/1999/xlink" x="0px" y="0px"
	 width="176.485px" height="61.079px" viewBox="0 0 176.485 61.079" enable-background="new 0 0 176.485 61.079"
	 xml:space="preserve">
<polygon points="32.583,43.978 30.76,43.978 4.575,11.3 4.575,43.978 2.643,43.978 2.643,8.027 4.414,8.027 30.598,40.704 
	30.598,8.027 32.583,8.027 "/>
<path d="M33.56,44.954h-3.27L5.551,14.08v30.874H1.667V7.051h3.216l24.739,30.873V7.051h3.938V44.954z M31.575,43.001h0.033V9.004
	h-0.033V43.001z"/>
<polygon points="69.856,43.978 44.369,43.978 44.369,8.027 69.802,8.027 69.802,9.798 46.301,9.798 46.301,25.036 68.193,25.036 
	68.193,26.753 46.301,26.753 46.301,42.207 69.856,42.207 "/>
<polygon points="70.833,44.954 43.393,44.954 43.393,7.051 70.779,7.051 70.779,10.774 47.278,10.774 47.278,24.06 69.169,24.06 
	69.169,27.729 47.278,27.729 47.278,41.23 70.833,41.23 "/>
<g>
	<defs>
		<rect id="SVGID_1_" width="176.485" height="61.079"/>
	</defs>
	<clipPath id="SVGID_2_">
		<use xlink:href="#SVGID_1_"  overflow="visible"/>
	</clipPath>
	<path clip-path="url(#SVGID_2_)" d="M107.578,12.83c3.542,3.594,5.312,7.986,5.312,13.172s-1.77,9.578-5.312,13.171
		c-3.541,3.597-7.87,5.394-12.985,5.394c-5.151,0-9.497-1.788-13.039-5.366c-3.541-3.577-5.311-7.977-5.311-13.199
		c0-5.186,1.77-9.578,5.311-13.172c3.542-3.596,7.888-5.393,13.039-5.393C99.708,7.438,104.037,9.234,107.578,12.83 M106.183,37.888
		c3.148-3.238,4.723-7.199,4.723-11.885s-1.574-8.648-4.723-11.885c-3.147-3.237-7.011-4.856-11.59-4.856
		c-4.614,0-8.495,1.619-11.643,4.856c-3.148,3.237-4.722,7.199-4.722,11.885s1.574,8.647,4.722,11.885
		c3.148,3.237,7.029,4.855,11.643,4.855C99.172,42.743,103.035,41.125,106.183,37.888"/>
	<path clip-path="url(#SVGID_2_)" d="M94.594,45.544c-5.397,0-10.019-1.902-13.733-5.655c-3.712-3.749-5.594-8.423-5.594-13.886
		c0-5.428,1.881-10.09,5.592-13.857c3.715-3.772,8.336-5.685,13.735-5.685c5.362,0,9.965,1.913,13.68,5.685
		c3.711,3.767,5.593,8.429,5.593,13.857c0,5.429-1.882,10.09-5.593,13.857C104.559,43.631,99.956,45.544,94.594,45.544
		 M94.594,10.238c-4.38,0-7.96,1.492-10.944,4.56c-2.95,3.033-4.445,6.803-4.445,11.204c0,4.401,1.495,8.17,4.445,11.204
		c2.983,3.069,6.563,4.561,10.944,4.561c4.344,0,7.905-1.491,10.889-4.561c2.95-3.033,4.446-6.803,4.446-11.204
		c0-4.401-1.496-8.171-4.445-11.204C102.498,11.73,98.937,10.238,94.594,10.238 M78.831,18.391
		c-1.071,2.301-1.611,4.845-1.611,7.611c0,3.573,0.887,6.766,2.646,9.536c-1.737-2.784-2.614-5.978-2.614-9.536
		C77.251,23.238,77.78,20.694,78.831,18.391 M110.301,18.388c1.051,2.304,1.581,4.849,1.581,7.614c0,2.772-0.532,5.321-1.589,7.628
		c1.077-2.305,1.62-4.854,1.62-7.628C111.913,23.235,111.372,20.689,110.301,18.388"/>
	<path clip-path="url(#SVGID_2_)" d="M175.463,51.734h-51.735V-0.001h51.735V51.734z M124.273,51.189h50.645V0.544h-50.645V51.189z"
		/>
	<path clip-path="url(#SVGID_2_)" fill="#52961E" d="M2.619,54.968h0.969l2.617,5.993H5.1l-0.603-1.438H1.683L1.07,60.961H0
		L2.619,54.968z M4.113,58.598l-1.028-2.38l-1.02,2.38H4.113z"/>
	<path clip-path="url(#SVGID_2_)" fill="#52961E" d="M8.845,55.01h2.653c0.747,0,1.334,0.223,1.716,0.596
		c0.315,0.322,0.493,0.765,0.493,1.284v0.016c0,0.978-0.586,1.564-1.411,1.803l1.606,2.252h-1.24L11.2,58.886H9.891v2.074H8.845
		V55.01z M11.42,57.96c0.748,0,1.223-0.391,1.223-0.995v-0.016c0-0.638-0.459-0.987-1.231-0.987H9.891v1.998H11.42z"/>
	<path clip-path="url(#SVGID_2_)" fill="#52961E" d="M16.346,58.003v-0.019c0-1.69,1.267-3.076,3.069-3.076
		c1.096,0,1.759,0.383,2.329,0.927l-0.672,0.773c-0.475-0.442-0.986-0.739-1.665-0.739c-1.132,0-1.965,0.935-1.965,2.1v0.016
		c0,1.165,0.825,2.109,1.965,2.109c0.731,0,1.198-0.29,1.708-0.765l0.671,0.68c-0.621,0.646-1.3,1.054-2.414,1.054
		C17.638,61.063,16.346,59.711,16.346,58.003"/>
	<polygon clip-path="url(#SVGID_2_)" fill="#52961E" points="24.502,55.011 25.548,55.011 25.548,57.484 28.387,57.484 
		28.387,55.011 29.432,55.011 29.432,60.961 28.387,60.961 28.387,58.452 25.548,58.452 25.548,60.961 24.502,60.961 	"/>
	<rect x="32.642" y="55.011" clip-path="url(#SVGID_2_)" fill="#52961E" width="1.046" height="5.95"/>
	<polygon clip-path="url(#SVGID_2_)" fill="#52961E" points="38.356,55.979 36.468,55.979 36.468,55.011 41.296,55.011 
		41.296,55.979 39.411,55.979 39.411,60.96 38.356,60.96 	"/>
	<polygon clip-path="url(#SVGID_2_)" fill="#52961E" points="44.021,55.011 48.433,55.011 48.433,55.945 45.068,55.945 
		45.068,57.492 48.05,57.492 48.05,58.428 45.068,58.428 45.068,60.026 48.475,60.026 48.475,60.961 44.021,60.961 	"/>
	<path clip-path="url(#SVGID_2_)" fill="#52961E" d="M51.073,58.003v-0.019c0-1.69,1.267-3.076,3.068-3.076
		c1.097,0,1.76,0.383,2.329,0.927l-0.671,0.773c-0.475-0.442-0.986-0.739-1.666-0.739c-1.131,0-1.964,0.935-1.964,2.1v0.016
		c0,1.165,0.825,2.109,1.964,2.109c0.731,0,1.199-0.29,1.709-0.765l0.671,0.68c-0.621,0.646-1.301,1.054-2.415,1.054
		C52.365,61.063,51.073,59.711,51.073,58.003"/>
	<polygon clip-path="url(#SVGID_2_)" fill="#52961E" points="60.691,55.979 58.803,55.979 58.803,55.011 63.631,55.011 
		63.631,55.979 61.745,55.979 61.745,60.96 60.691,60.96 	"/>
	<path clip-path="url(#SVGID_2_)" fill="#52961E" d="M66.262,58.436v-3.425h1.047v3.383c0,1.105,0.568,1.691,1.503,1.691
		c0.927,0,1.497-0.553,1.497-1.649v-3.425h1.044v3.374c0,1.777-1.002,2.669-2.558,2.669C67.248,61.054,66.262,60.162,66.262,58.436"
		/>
	<path clip-path="url(#SVGID_2_)" fill="#52961E" d="M74.41,55.01h2.652c0.748,0,1.335,0.223,1.717,0.596
		c0.315,0.322,0.493,0.765,0.493,1.284v0.016c0,0.978-0.586,1.564-1.411,1.803l1.607,2.252h-1.241l-1.462-2.074h-1.309v2.074H74.41
		V55.01z M76.985,57.96c0.749,0,1.225-0.391,1.225-0.995v-0.016c0-0.638-0.459-0.987-1.233-0.987h-1.521v1.998H76.985z"/>
	<polygon clip-path="url(#SVGID_2_)" fill="#52961E" points="82.176,55.011 86.586,55.011 86.586,55.945 83.22,55.945 83.22,57.492 
		86.204,57.492 86.204,58.428 83.22,58.428 83.22,60.026 86.63,60.026 86.63,60.961 82.176,60.961 	"/>
	<path clip-path="url(#SVGID_2_)" fill="#52961E" d="M96.989,60.272c-0.511,0.477-1.105,0.773-1.819,0.773
		c-1.114,0-1.947-0.671-1.947-1.7v-0.018c0-0.765,0.451-1.316,1.267-1.665c-0.339-0.434-0.492-0.808-0.492-1.241v-0.018
		c0-0.799,0.646-1.497,1.708-1.497c0.944,0,1.581,0.639,1.581,1.438v0.017c0,0.783-0.519,1.25-1.309,1.547l1.02,1.038
		c0.229-0.341,0.443-0.73,0.639-1.147l0.79,0.417c-0.238,0.476-0.501,0.942-0.809,1.351l0.944,0.952l-0.782,0.562L96.989,60.272z
		 M96.394,59.66l-1.326-1.351c-0.552,0.237-0.79,0.604-0.79,0.985v0.017c0,0.501,0.417,0.867,0.995,0.867
		C95.68,60.179,96.055,59.982,96.394,59.66 M96.36,56.422v-0.018c0-0.399-0.28-0.672-0.673-0.672c-0.423,0-0.713,0.298-0.713,0.714
		v0.019c0,0.298,0.119,0.518,0.451,0.883C96.036,57.128,96.36,56.847,96.36,56.422"/>
	<path clip-path="url(#SVGID_2_)" fill="#52961E" d="M105.097,58.003v-0.019c0-1.69,1.267-3.076,3.068-3.076
		c1.096,0,1.759,0.383,2.329,0.927l-0.672,0.773c-0.475-0.442-0.986-0.739-1.665-0.739c-1.132,0-1.965,0.935-1.965,2.1v0.016
		c0,1.165,0.825,2.109,1.965,2.109c0.731,0,1.198-0.29,1.708-0.765l0.671,0.68c-0.621,0.646-1.3,1.054-2.414,1.054
		C106.389,61.063,105.097,59.711,105.097,58.003"/>
	<path clip-path="url(#SVGID_2_)" fill="#52961E" d="M112.818,58.003v-0.019c0-1.673,1.293-3.076,3.121-3.076
		c1.827,0,3.102,1.386,3.102,3.061v0.016c0,1.677-1.291,3.078-3.12,3.078C114.094,61.063,112.818,59.678,112.818,58.003
		 M117.945,58.003v-0.019c0-1.154-0.842-2.115-2.024-2.115c-1.181,0-2.005,0.942-2.005,2.1v0.016c0,1.157,0.842,2.109,2.023,2.109
		S117.945,59.159,117.945,58.003"/>
	<polygon clip-path="url(#SVGID_2_)" fill="#52961E" points="121.928,55.011 122.897,55.011 126.085,59.126 126.085,55.011 
		127.113,55.011 127.113,60.961 126.238,60.961 122.956,56.727 122.956,60.961 121.928,60.961 	"/>
	<path clip-path="url(#SVGID_2_)" fill="#52961E" d="M129.862,60.094l0.629-0.749c0.57,0.494,1.148,0.775,1.879,0.775
		c0.646,0,1.054-0.308,1.054-0.749v-0.018c0-0.425-0.237-0.653-1.342-0.91c-1.267-0.305-1.98-0.679-1.98-1.774V56.65
		c0-1.02,0.849-1.725,2.03-1.725c0.868,0,1.557,0.262,2.159,0.748l-0.561,0.79c-0.535-0.399-1.071-0.611-1.615-0.611
		c-0.612,0-0.969,0.313-0.969,0.705v0.017c0,0.46,0.271,0.664,1.42,0.936c1.258,0.305,1.903,0.756,1.903,1.742v0.017
		c0,1.114-0.876,1.777-2.125,1.777C131.436,61.046,130.576,60.73,129.862,60.094"/>
	<path clip-path="url(#SVGID_2_)" fill="#52961E" d="M137.229,58.436v-3.425h1.046v3.383c0,1.105,0.568,1.691,1.504,1.691
		c0.927,0,1.496-0.553,1.496-1.649v-3.425h1.045v3.374c0,1.777-1.002,2.669-2.559,2.669
		C138.213,61.054,137.229,60.162,137.229,58.436"/>
	<polygon clip-path="url(#SVGID_2_)" fill="#52961E" points="145.375,55.011 146.423,55.011 146.423,60.009 149.55,60.009 
		149.55,60.961 145.375,60.961 	"/>
	<polygon clip-path="url(#SVGID_2_)" fill="#52961E" points="152.868,55.979 150.982,55.979 150.982,55.011 155.81,55.011 
		155.81,55.979 153.923,55.979 153.923,60.96 152.868,60.96 	"/>
	<rect x="158.593" y="55.011" clip-path="url(#SVGID_2_)" fill="#52961E" width="1.046" height="5.95"/>
	<polygon clip-path="url(#SVGID_2_)" fill="#52961E" points="162.846,55.011 163.814,55.011 167.002,59.126 167.002,55.011 
		168.031,55.011 168.031,60.961 167.156,60.961 163.875,56.727 163.875,60.961 162.846,60.961 	"/>
	<path clip-path="url(#SVGID_2_)" fill="#52961E" d="M170.917,58.003v-0.019c0-1.665,1.275-3.076,3.069-3.076
		c1.037,0,1.675,0.29,2.286,0.808l-0.663,0.791c-0.459-0.392-0.91-0.638-1.666-0.638c-1.097,0-1.931,0.961-1.931,2.1v0.016
		c0,1.226,0.809,2.126,2.024,2.126c0.561,0,1.071-0.178,1.437-0.449v-1.114h-1.521v-0.911h2.533v2.501
		c-0.587,0.501-1.43,0.926-2.482,0.926C172.141,61.063,170.917,59.736,170.917,58.003"/>
	<polygon clip-path="url(#SVGID_2_)" points="165.007,43.816 168.424,43.816 149.934,8.833 130.767,43.816 134.152,43.816 
		149.856,15.153 	"/>
	<polygon clip-path="url(#SVGID_2_)" fill="none" stroke="#000000" stroke-miterlimit="10" points="165.007,43.816 168.424,43.816 
		149.934,8.833 130.767,43.816 134.152,43.816 149.856,15.153 	"/>
</g>
</svg>
