<?xml version="1.0" encoding="utf-8"?>
<!-- Generator: Adobe Illustrator 16.0.3, SVG Export Plug-In . SVG Version: 6.00 Build 0)  -->
<!DOCTYPE svg PUBLIC "-//W3C//DTD SVG 1.1//EN" "http://www.w3.org/Graphics/SVG/1.1/DTD/svg11.dtd">
<svg version="1.1" id="Layer_1" xmlns="http://www.w3.org/2000/svg" xmlns:xlink="http://www.w3.org/1999/xlink" x="0px" y="0px"
	 width="44.977px" height="31px" viewBox="0 0 44.977 31" enable-background="new 0 0 44.977 31" xml:space="preserve">
<g>
	<defs>
		<rect id="SVGID_1_" width="44.88" height="31"/>
	</defs>
	<clipPath id="SVGID_2_">
		<use xlink:href="#SVGID_1_"  overflow="visible"/>
	</clipPath>
	<path clip-path="url(#SVGID_2_)" d="M22.547,18.039h0.008c0.34,0,0.676-0.098,0.945-0.277l0.074-0.047
		c0.016-0.012,0.031-0.02,0.051-0.032l0.855-0.711L44.93,0.097C44.891,0.039,44.816,0,44.738,0h-44.5
		C0.184,0,0.133,0.019,0.09,0.054l21.398,17.632C21.758,17.91,22.141,18.039,22.547,18.039 M0,2.39v25.016l15.328-12.383L0,2.39z
		 M29.668,15.109l15.309,12.305V2.472L29.668,15.109z M24.801,19.125c-0.612,0.5-1.41,0.777-2.25,0.777s-1.637-0.273-2.246-0.773
		l-3.512-2.895L0,29.797v0.043c0,0.129,0.109,0.238,0.242,0.238h44.5c0.125,0,0.234-0.109,0.234-0.238v-0.039L28.199,16.32
		L24.801,19.125z"/>
</g>
</svg>
