<?xml version="1.0" encoding="utf-8"?>
<!-- Generator: Adobe Illustrator 16.0.3, SVG Export Plug-In . SVG Version: 6.00 Build 0)  -->
<!DOCTYPE svg PUBLIC "-//W3C//DTD SVG 1.1//EN" "http://www.w3.org/Graphics/SVG/1.1/DTD/svg11.dtd">
<svg version="1.1" id="Layer_1" xmlns="http://www.w3.org/2000/svg" xmlns:xlink="http://www.w3.org/1999/xlink" x="0px" y="0px"
	 width="13.92px" height="15px" viewBox="0 0 13.92 15" enable-background="new 0 0 13.92 15" xml:space="preserve">
<g>
	<defs>
		<rect id="SVGID_1_" width="13.92" height="15"/>
	</defs>
	<clipPath id="SVGID_2_">
		<use xlink:href="#SVGID_1_"  overflow="visible"/>
	</clipPath>
	<path clip-path="url(#SVGID_2_)" fill="#231F20" d="M13.094,13.703l-1.219,0.809c-0.789,0.539-4.141,1.148-8.699-4.375
		C-1.219,4.82,0.039,1.871,0.629,1.191l1.016-1.054c0.238-0.203,0.597-0.18,0.804,0.066l2.668,3.156v0.004
		c0.195,0.231,0.192,0.59-0.066,0.805v0.004L3.867,5.024C3.398,5.488,3.809,6.219,4.285,6.926l2.277,2.684
		c1.059,1.023,1.637,1.497,2.141,1.156l0.985-1.094c0.241-0.203,0.601-0.18,0.804,0.066l2.672,3.156
		C13.359,13.129,13.353,13.484,13.094,13.703"/>
</g>
</svg>
